<svg id="Layer_1" data-name="Layer 1" xmlns="http://www.w3.org/2000/svg" viewBox="0 0 24 24"><defs><style>.cls-1{fill:none;}.cls-2{fill:#766efe;}</style></defs><path class="cls-1" d="M0,0H24V24H0Z"/><path d="M7,15h7v2H7Zm0-4H17v2H7ZM7,7H17V9H7ZM19,3H14.82A3,3,0,0,0,9.18,3H5a1.75,1.75,0,0,0-.4,0A2,2,0,0,0,3.16,4.23,1.93,1.93,0,0,0,3,5V19a2.05,2.05,0,0,0,.16.78,2.12,2.12,0,0,0,.43.64,2,2,0,0,0,1,.55A2.6,2.6,0,0,0,5,21H19a2,2,0,0,0,2-2V5A2,2,0,0,0,19,3Zm-7-.25a.75.75,0,1,1-.75.75A.76.76,0,0,1,12,2.75ZM19,19H5V5H19Z"/><rect class="cls-2" x="7" y="7" width="10" height="2"/><rect class="cls-2" x="7" y="11" width="10" height="2"/><rect class="cls-2" x="7" y="15" width="7.07" height="2"/></svg>