<svg id="Layer_1" data-name="Layer 1" xmlns="http://www.w3.org/2000/svg" viewBox="0 0 24 24"><defs><style>.cls-2{fill:#febb2a}</style></defs><path fill="none" d="M0 0h24v24H0z"/><path class="cls-2" d="M12.03 5.51L9.76 6.77l-1.23 2.3-1.27-2.28-2.29-1.23 2.27-1.27L8.47 2l1.27 2.28 2.29 1.23zM17.81 8.82L16 9.83l-.98 1.82-1.01-1.81-1.83-.98 1.81-1.01.99-1.83 1.01 1.82 1.82.98zM6.82 10.98L5 11.99l-.98 1.82L3.01 12l-1.82-.98L3 10.01l.98-1.82L4.99 10l1.83.98z"/><path transform="rotate(45 7.498 15.986)" d="M6.43 10.66h2.14v10.65H6.43z"/><path d="M23 8.93l-1.41-1.41-8.49 9.57 1.4 1.4L23 8.93z"/><path transform="rotate(42.05 12.482 14.955)" d="M8.64 13.71h7.67v2.49H8.64z"/></svg>