<svg id="Layer_1" data-name="Layer 1" xmlns="http://www.w3.org/2000/svg" viewBox="0 0 24 24"><defs><style>.cls-1{fill:none;}.cls-2{fill:#febb2a;}</style></defs><rect class="cls-1" width="24" height="24"/><polygon class="cls-2" points="12.03 5.51 9.76 6.77 8.53 9.07 7.26 6.79 4.97 5.56 7.24 4.29 8.47 2 9.74 4.28 12.03 5.51"/><polygon class="cls-2" points="17.81 8.82 16 9.83 15.02 11.65 14.01 9.84 12.18 8.86 13.99 7.85 14.98 6.02 15.99 7.84 17.81 8.82"/><polygon class="cls-2" points="6.82 10.98 5 11.99 4.02 13.81 3.01 12 1.19 11.02 3 10.01 3.98 8.19 4.99 10 6.82 10.98"/><rect x="6.43" y="10.66" width="2.14" height="10.65" transform="translate(13.5 -0.62) rotate(45)"/><polygon points="23 8.93 21.59 7.52 13.1 17.09 14.5 18.49 23 8.93"/><rect x="8.64" y="13.71" width="7.67" height="2.49" transform="translate(13.23 -4.51) rotate(42.05)"/></svg>