<svg id="Layer_1" data-name="Layer 1" xmlns="http://www.w3.org/2000/svg" viewBox="0 0 24 24"><defs><style>.cls-1{fill:none;}.cls-2{fill:#4aecd1;}</style></defs><path class="cls-1" d="M0,0H24V24H0Z"/><path d="M19.35,10a7.49,7.49,0,0,0-14-2A6,6,0,0,0,6,20H19a5,5,0,0,0,.35-10ZM19,18H6a4,4,0,0,1-.44-8l1.07-.11L7.13,9a5.49,5.49,0,0,1,10.26,1.46l.3,1.5,1.53.11A3,3,0,0,1,19,18ZM8,13h2.55v3h2.9V13H16L12,9Z"/><rect class="cls-2" x="10.55" y="10.98" width="2.92" height="5.21"/><polygon class="cls-2" points="12.02 8.85 7.8 13.03 16.22 13.03 12.02 8.85"/></svg>