<svg id="Layer_1" data-name="Layer 1" xmlns="http://www.w3.org/2000/svg" viewBox="0 0 24 24"><defs><style>.cls-1,.cls-2{fill:none;}.cls-2{stroke:#8d272e;stroke-miterlimit:10;stroke-width:2.2px;}</style></defs><path class="cls-1" d="M0,0H24V24H0Z"/><path d="M12,2,6.5,11h11Zm0,3.84L13.93,9H10.06ZM17.5,13A4.5,4.5,0,1,0,22,17.5,4.49,4.49,0,0,0,17.5,13Zm0,7A2.5,2.5,0,1,1,20,17.5,2.5,2.5,0,0,1,17.5,20ZM3,21.5h8v-8H3Zm2-6H9v4H5Z"/><path class="cls-2" d="M17.19,14.08A3.54,3.54,0,0,1,21,17.57a3.48,3.48,0,1,1-3.79-3.49Z"/></svg>