<svg id="Layer_1" data-name="Layer 1" xmlns="http://www.w3.org/2000/svg" viewBox="0 0 161.29 180.8"><defs><style>.cls-1{fill:#231f20;}.cls-2,.cls-3{fill:none;stroke:#231f20;stroke-miterlimit:10;}.cls-2{stroke-width:0.45px;}.cls-3{stroke-width:0.75px;}.cls-4{fill:#131114;}.cls-5{fill:#5e14ff;}</style></defs><path class="cls-1" d="M164.32,141.36v.14L161.69,143l-13.76,7.86a.06.06,0,0,1,0,0,.17.17,0,0,1,0-.07l4.94-2.79Z" transform="translate(-3.03 -2.73)"/><path class="cls-1" d="M164.32,141.36v.14L161.69,143l-13.76,7.86a.06.06,0,0,1,0,0,.17.17,0,0,1,0-.07l4.94-2.79Z" transform="translate(-3.03 -2.73)"/><path class="cls-2" d="M88.62,60.69" transform="translate(-3.03 -2.73)"/><path class="cls-2" d="M37.86,31.38" transform="translate(-3.03 -2.73)"/><path class="cls-3" d="M75.59,92.79" transform="translate(-3.03 -2.73)"/><path class="cls-3" d="M3.51,51.17" transform="translate(-3.03 -2.73)"/><polygon class="cls-4" points="46.94 111.63 72.56 126.75 72.56 180.69 46.94 165.39 46.94 111.63"/><polygon class="cls-5" points="72.56 119.09 46.96 103.88 46.94 84.4 72.56 99.74 72.56 119.09"/><path class="cls-5" d="M164.32,141.36,152.89,148,148,150.76a.17.17,0,0,0,0,.07l-6.48,3.74-27.81-16-.23,32.06L100.54,178l-9.83,5.57-.14-82.82,22-12.51,1.4-.8L113.84,112l27.69,16.09.15-56.54.75-.43L164.3,58.62Z" transform="translate(-3.03 -2.73)"/><polygon class="cls-5" points="161.29 138.63 161.29 138.77 149.86 145.24 161.29 138.63"/><path class="cls-5" d="M152.89,148l-4.95,2.86a.17.17,0,0,1,0-.07Z" transform="translate(-3.03 -2.73)"/><polygon class="cls-4" points="79.5 36.45 61.94 47.55 68.95 51.6 68.96 51.6 103.9 71.77 72.94 90.79 39.12 71.05 31.65 66.7 30.4 65.97 31.6 66.73 31.8 156.95 0 138.77 0 46.6 59.27 12.73 80.65 0.51 99.29 11.04 109.96 17.19 153.91 42.51 122.45 60.69 79.5 36.45"/><polygon class="cls-1" points="31.65 66.7 31.6 66.73 30.4 65.97 31.65 66.7"/><polygon class="cls-1" points="110.06 17.13 109.96 17.19 99.29 11.04 110.06 17.13"/><polygon class="cls-1" points="99.29 11.04 80.65 0.51 59.27 12.73 80.12 0 99.29 11.04"/></svg>